<svg width="24" height="26" viewBox="0 0 24 26" fill="none" xmlns="http://www.w3.org/2000/svg">
<path d="M21.9 19.6198L21.6733 19.4106C21.0303 18.8112 20.4674 18.1238 20 17.367C19.4895 16.3226 19.1835 15.182 19.1 14.0122V10.5668C19.1044 8.72941 18.4673 6.95359 17.3085 5.57297C16.1496 4.19235 14.5488 3.30196 12.8067 3.06911V2.16939C12.8067 1.92244 12.7129 1.68561 12.546 1.511C12.3791 1.33638 12.1527 1.23828 11.9167 1.23828C11.6806 1.23828 11.4542 1.33638 11.2873 1.511C11.1204 1.68561 11.0267 1.92244 11.0267 2.16939V3.08306C9.30016 3.3327 7.71864 4.22846 6.57501 5.60444C5.43138 6.98042 4.80315 8.74338 4.80666 10.5668V14.0122C4.72316 15.182 4.41718 16.3226 3.90666 17.367C3.44725 18.1219 2.89345 18.8092 2.25999 19.4106L2.03333 19.6198V21.5866H21.9V19.6198Z" fill="#00B050"/>
<path d="M10.2134 22.3184C10.2718 22.7605 10.4812 23.1655 10.8029 23.4587C11.1246 23.7518 11.5368 23.9133 11.9634 23.9133C12.39 23.9133 12.8022 23.7518 13.1239 23.4587C13.4455 23.1655 13.6549 22.7605 13.7134 22.3184H10.2134Z" fill="#00B050"/>
</svg>
