<svg width="24" height="24" viewBox="0 0 24 24" fill="none" xmlns="http://www.w3.org/2000/svg">
<path d="M18.5 16H7C4.79 16 3 14.21 3 12C3 9.79 4.79 8 7 8H19.5C20.163 8 20.7989 8.26339 21.2678 8.73223C21.7366 9.20107 22 9.83696 22 10.5C22 11.163 21.7366 11.7989 21.2678 12.2678C20.7989 12.7366 20.163 13 19.5 13H9C8.45 13 8 12.55 8 12C8 11.45 8.45 11 9 11H18.5V9.5H9C8.33696 9.5 7.70107 9.76339 7.23223 10.2322C6.76339 10.7011 6.5 11.337 6.5 12C6.5 12.663 6.76339 13.2989 7.23223 13.7678C7.70107 14.2366 8.33696 14.5 9 14.5H19.5C21.71 14.5 23.5 12.71 23.5 10.5C23.5 8.29 21.71 6.5 19.5 6.5H7C3.96 6.5 1.5 8.96 1.5 12C1.5 15.04 3.96 17.5 7 17.5H18.5V16Z" fill="#43D585"/>
</svg>
