<svg width="29" height="36" viewBox="0 0 29 36" fill="none" xmlns="http://www.w3.org/2000/svg">
<path d="M3.08597 15.6C3.67198 15.6 4.14702 15.125 4.14702 14.5389V14.4C3.56102 14.4 3.08597 14.875 3.08597 15.4611V15.6ZM11.5744 15.6C12.1604 15.6 12.6354 15.125 12.6354 14.5389V14.4C12.0494 14.4 11.5744 14.875 11.5744 15.4611V15.6ZM12.6354 26.2611C12.6354 25.6751 12.1604 25.2 11.5744 25.2V25.3389C11.5744 25.925 12.0494 26.4 12.6354 26.4V26.2611ZM28.193 7.60512C27.9201 7.91375 28.1393 8.4 28.5512 8.4V8.37273C28.5512 8.0701 28.4411 7.7778 28.2414 7.5504L28.193 7.60512ZM21.1239 0.0659103C21.1239 0.461379 21.6131 0.646664 21.8751 0.3504L21.8552 0.328094C21.6694 0.119384 21.4033 0 21.1239 0V0.0659103ZM4.14702 14.6779C4.14702 15.8499 5.09712 16.8 6.26913 16.8V14.4H4.14702V14.6779ZM4.14702 26.4C4.73303 26.4 5.20808 25.925 5.20808 25.3389V20.4H3.08597V25.3389C3.08597 25.925 3.56102 26.4 4.14702 26.4ZM5.20808 20.4V17.7221C5.20808 16.5501 4.25798 15.6 3.08597 15.6V20.4H5.20808ZM6.26913 19.2H5.34703C4.68428 19.2 4.14702 19.7373 4.14702 20.4C4.14702 21.0627 4.68428 21.6 5.34703 21.6H6.26913V19.2ZM7.33018 18C7.33018 18.3183 7.21839 18.6235 7.01941 18.8485C6.82042 19.0736 6.55054 19.2 6.26913 19.2V21.6C7.11336 21.6 7.92301 21.2207 8.51996 20.5456C9.11692 19.8705 9.45229 18.9548 9.45229 18H7.33018ZM6.26913 16.8C6.55054 16.8 6.82042 16.9264 7.01941 17.1515C7.21839 17.3765 7.33018 17.6817 7.33018 18H9.45229C9.45229 17.0452 9.11692 16.1295 8.51996 15.4544C7.92301 14.7793 7.11336 14.4 6.26913 14.4V16.8ZM11.5744 15.6V25.2C12.7464 25.2 13.6965 24.2499 13.6965 23.0779V17.7221C13.6965 16.5501 12.7464 15.6 11.5744 15.6ZM12.6354 26.4H14.7576V24C13.5855 24 12.6354 24.9501 12.6354 26.1221V26.4ZM17.9407 22.8V18H15.8186V22.8H17.9407ZM14.7576 14.4H12.6354V14.6779C12.6354 15.8499 13.5855 16.8 14.7576 16.8V14.4ZM17.9407 18C17.9407 17.0452 17.6053 16.1295 17.0084 15.4544C16.4114 14.7793 15.6018 14.4 14.7576 14.4V16.8C15.039 16.8 15.3088 16.9264 15.5078 17.1515C15.7068 17.3765 15.8186 17.6817 15.8186 18H17.9407ZM14.7576 26.4C15.6018 26.4 16.4114 26.0207 17.0084 25.3456C17.6053 24.6705 17.9407 23.7548 17.9407 22.8H15.8186C15.8186 23.1183 15.7068 23.4235 15.5078 23.6485C15.3088 23.8736 15.039 24 14.7576 24V26.4ZM21.1239 14.4C20.5379 14.4 20.0628 14.875 20.0628 15.4611V25.3389C20.0628 25.925 20.5379 26.4 21.1239 26.4C21.7099 26.4 22.1849 25.925 22.1849 25.3389V15.4611C22.1849 14.8751 21.7099 14.4 21.1239 14.4ZM21.1239 15.6C21.1239 16.2627 21.6611 16.8 22.3239 16.8H25.2291C25.8919 16.8 26.4291 16.2627 26.4291 15.6C26.4291 14.9373 25.8919 14.4 25.2291 14.4H22.3239C21.6611 14.4 21.1239 14.9373 21.1239 15.6ZM21.1239 20.4C21.1239 21.0627 21.6611 21.6 22.3239 21.6H23.107C23.7698 21.6 24.307 21.0627 24.307 20.4C24.307 19.7373 23.7698 19.2 23.107 19.2H22.3239C21.6611 19.2 21.1239 19.7373 21.1239 20.4ZM2.02492 12C2.61092 12 3.08597 11.525 3.08597 10.9389V3.6H0.963867V10.9389C0.963867 11.525 1.43892 12 2.02492 12ZM28.2291 8.4C27.235 8.4 26.4291 9.20589 26.4291 10.2V10.9389C26.4291 11.525 26.9042 12 27.4902 12C28.0762 12 28.5512 11.525 28.5512 10.9389V8.4H28.2291ZM4.14702 2.4H18.7239C20.0494 2.4 21.1239 1.32548 21.1239 0H4.14702V2.4ZM21.8751 0.3504C21.0171 1.32074 21.0171 2.77846 21.8751 3.7488L25.2365 7.5504C26.0347 8.45315 27.4432 8.45315 28.2414 7.5504L21.8751 0.3504ZM3.08597 3.6C3.08597 3.28174 3.19776 2.97652 3.39675 2.75147C3.59573 2.52643 3.86562 2.4 4.14702 2.4V0C3.3028 0 2.49315 0.379285 1.89619 1.05442C1.29923 1.72955 0.963867 2.64522 0.963867 3.6H3.08597ZM2.02492 28.8C1.43892 28.8 0.963867 29.2751 0.963867 29.8611V32.4H3.08597V29.8611C3.08597 29.2751 2.61092 28.8 2.02492 28.8ZM4.14702 36H25.3681V33.6H4.14702V36ZM28.5512 32.4V29.8611C28.5512 29.2751 28.0762 28.8 27.4902 28.8C26.9042 28.8 26.4291 29.2751 26.4291 29.8611V32.4H28.5512ZM25.3681 36C26.2123 36 27.022 35.6207 27.6189 34.9456C28.2159 34.2705 28.5512 33.3548 28.5512 32.4H26.4291C26.4291 32.7183 26.3173 33.0235 26.1184 33.2485C25.9194 33.4736 25.6495 33.6 25.3681 33.6V36ZM0.963867 32.4C0.963867 33.3548 1.29923 34.2705 1.89619 34.9456C2.49315 35.6207 3.3028 36 4.14702 36V33.6C3.86562 33.6 3.59573 33.4736 3.39675 33.2485C3.19776 33.0235 3.08597 32.7183 3.08597 32.4H0.963867Z" fill="#FFB8B8"/>
</svg>
