<svg width="23" height="23" viewBox="0 0 23 23" fill="none" xmlns="http://www.w3.org/2000/svg">
<path d="M11.5 18.9751C11.9792 18.9751 12.3867 18.8072 12.7225 18.4714C13.0583 18.1356 13.2258 17.7285 13.225 17.2501H9.775C9.775 17.7293 9.9429 18.1367 10.2787 18.4725C10.6145 18.8083 11.0216 18.9759 11.5 18.9751ZM9.2 13.8001V10.3501C9.2 9.7176 9.4254 9.17595 9.8762 8.72515C10.327 8.27435 10.8683 8.04933 11.5 8.0501C12.1325 8.0501 12.6742 8.2755 13.125 8.7263C13.5758 9.1771 13.8008 9.71836 13.8 10.3501V13.8001H9.2ZM11.5 23.0001C9.90917 23.0001 8.41417 22.698 7.015 22.0939C5.61584 21.4898 4.39875 20.6706 3.36375 19.6363C2.32875 18.6013 1.50957 17.3843 0.906202 15.9851C0.302836 14.5859 0.00076886 13.0909 2.19345e-06 11.5001C2.19345e-06 9.90926 0.302069 8.41426 0.906202 7.0151C1.51034 5.61593 2.32952 4.39885 3.36375 3.36385C4.39875 2.32885 5.61584 1.50967 7.015 0.906299C8.41417 0.302932 9.90917 0.000865372 11.5 9.87053e-05C13.0908 9.87053e-05 14.5858 0.302165 15.985 0.906299C17.3842 1.51043 18.6013 2.32962 19.6363 3.36385C20.6713 4.39885 21.4908 5.61593 22.0949 7.0151C22.6991 8.41426 23.0008 9.90926 23 11.5001C23 13.0909 22.6979 14.5859 22.0938 15.9851C21.4897 17.3843 20.6705 18.6013 19.6363 19.6363C18.6013 20.6713 17.3842 21.4909 15.985 22.095C14.5858 22.6992 13.0908 23.0009 11.5 23.0001ZM11.5 20.7001C14.0683 20.7001 16.2437 19.8088 18.0262 18.0263C19.8087 16.2438 20.7 14.0684 20.7 11.5001C20.7 8.93176 19.8087 6.75635 18.0262 4.97385C16.2437 3.19135 14.0683 2.3001 11.5 2.3001C8.93167 2.3001 6.75625 3.19135 4.97375 4.97385C3.19125 6.75635 2.3 8.93176 2.3 11.5001C2.3 14.0684 3.19125 16.2438 4.97375 18.0263C6.75625 19.8088 8.93167 20.7001 11.5 20.7001ZM6.9 16.1001H16.1C16.4258 16.1001 16.6992 15.9897 16.9199 15.7689C17.1407 15.5481 17.2508 15.2752 17.25 14.9501C17.25 14.6243 17.1396 14.3509 16.9188 14.1301C16.698 13.9093 16.4251 13.7993 16.1 13.8001V10.8101C16.1 9.64093 15.7979 8.5722 15.1938 7.6039C14.5897 6.6356 13.7417 6.01766 12.65 5.7501V5.1751C12.65 4.84926 12.5396 4.57595 12.3188 4.35515C12.098 4.13435 11.8251 4.02433 11.5 4.0251C11.1742 4.0251 10.9009 4.1355 10.6801 4.3563C10.4593 4.5771 10.3492 4.85003 10.35 5.1751V5.7501C9.2575 6.01843 8.40957 6.63675 7.8062 7.60505C7.20283 8.57335 6.90077 9.6417 6.9 10.8101V13.8001C6.57417 13.8001 6.30085 13.9105 6.08005 14.1313C5.85925 14.3521 5.74923 14.625 5.75 14.9501C5.75 15.2759 5.8604 15.5492 6.0812 15.77C6.302 15.9908 6.57493 16.1009 6.9 16.1001Z" fill="#79747E"/>
</svg>
