<svg width="23" height="24" viewBox="0 0 23 24" fill="none" xmlns="http://www.w3.org/2000/svg">
<path d="M9.06252 20.555C8.19213 20.3576 7.3562 20.0309 6.58252 19.586M13.0625 3.00098C15.0507 3.45505 16.8258 4.57067 18.0972 6.16518C19.3686 7.7597 20.061 9.73863 20.061 11.778C20.061 13.8173 19.3686 15.7963 18.0972 17.3908C16.8258 18.9853 15.0507 20.1009 13.0625 20.555M3.64152 16.871C3.09603 16.0784 2.68172 15.2032 2.41452 14.279M2.18652 10.278C2.34652 9.32798 2.65452 8.42798 3.08652 7.60298L3.25552 7.29798M5.96952 4.35698C6.90518 3.71288 7.95484 3.25269 9.06252 3.00098" stroke="#79747E" stroke-width="2" stroke-linecap="round" stroke-linejoin="round"/>
<path d="M8.0625 11.7783L10.0625 13.7783L14.0625 9.77832" stroke="#79747E" stroke-width="2" stroke-linecap="round" stroke-linejoin="round"/>
</svg>
