<svg width="24" height="24" viewBox="0 0 24 24" fill="none" xmlns="http://www.w3.org/2000/svg">
<path d="M19.8844 12.471C19.7308 12.2962 19.646 12.0713 19.646 11.8385C19.646 11.6058 19.7308 11.3809 19.8844 11.206L21.1111 9.82604C21.2463 9.67527 21.3302 9.48555 21.3508 9.28411C21.3715 9.08267 21.3278 8.87987 21.2261 8.70479L19.3094 5.38896C19.2087 5.21408 19.0553 5.07547 18.8712 4.99287C18.6871 4.91027 18.4816 4.8879 18.284 4.92896L16.4823 5.29313C16.2531 5.3405 16.0144 5.30232 15.8114 5.18579C15.6084 5.06927 15.455 4.88246 15.3802 4.66063L14.7957 2.90688C14.7314 2.71653 14.6089 2.55121 14.4455 2.43427C14.2821 2.31733 14.0862 2.25469 13.8852 2.25521H10.0519C9.84293 2.2443 9.63613 2.3021 9.46308 2.41977C9.29003 2.53744 9.16026 2.70852 9.09358 2.90688L8.55691 4.66063C8.48217 4.88246 8.3288 5.06927 8.12577 5.18579C7.92274 5.30232 7.68408 5.3405 7.45483 5.29313L5.60525 4.92896C5.41794 4.90249 5.22699 4.93205 5.05646 5.01391C4.88592 5.09576 4.74342 5.22626 4.64691 5.38896L2.73025 8.70479C2.62594 8.87791 2.57904 9.07958 2.59626 9.28097C2.61347 9.48235 2.69391 9.67313 2.82608 9.82604L4.04316 11.206C4.1968 11.3809 4.28153 11.6058 4.28153 11.8385C4.28153 12.0713 4.1968 12.2962 4.04316 12.471L2.82608 13.851C2.69391 14.004 2.61347 14.1947 2.59626 14.3961C2.57904 14.5975 2.62594 14.7992 2.73025 14.9723L4.64691 18.2881C4.74763 18.463 4.90099 18.6016 5.08511 18.6842C5.26924 18.7668 5.47475 18.7892 5.67233 18.7481L7.474 18.384C7.70325 18.3366 7.94191 18.3748 8.14494 18.4913C8.34797 18.6078 8.50133 18.7946 8.57608 19.0165L9.16066 20.7702C9.22734 20.9686 9.35712 21.1396 9.53017 21.2573C9.70321 21.375 9.91002 21.4328 10.119 21.4219H13.9523C14.1532 21.4224 14.3492 21.3598 14.5126 21.2428C14.676 21.1259 14.7985 20.9606 14.8627 20.7702L15.4473 19.0165C15.5221 18.7946 15.6754 18.6078 15.8785 18.4913C16.0815 18.3748 16.3202 18.3366 16.5494 18.384L18.3511 18.7481C18.5487 18.7892 18.7542 18.7668 18.9383 18.6842C19.1224 18.6016 19.2758 18.463 19.3765 18.2881L21.2932 14.9723C21.3949 14.7972 21.4386 14.5944 21.4179 14.393C21.3973 14.1915 21.3133 14.0018 21.1782 13.851L19.8844 12.471ZM18.4565 13.7552L19.2232 14.6177L17.9965 16.7452L16.8657 16.5152C16.1755 16.3741 15.4575 16.4914 14.848 16.8447C14.2385 17.198 13.78 17.7628 13.5594 18.4319L13.1952 19.5052H10.7419L10.3969 18.4127C10.1764 17.7436 9.71782 17.1788 9.10834 16.8255C8.49887 16.4722 7.78088 16.355 7.09066 16.496L5.95983 16.726L4.714 14.6081L5.48066 13.7456C5.95212 13.2185 6.21277 12.5361 6.21277 11.829C6.21277 11.1218 5.95212 10.4394 5.48066 9.91229L4.714 9.04979L5.94066 6.94146L7.0715 7.17146C7.76171 7.31255 8.4797 7.1953 9.08918 6.84198C9.69865 6.48866 10.1572 5.92386 10.3777 5.25479L10.7419 4.17188H13.1952L13.5594 5.26438C13.78 5.93344 14.2385 6.49825 14.848 6.85157C15.4575 7.20489 16.1755 7.32213 16.8657 7.18104L17.9965 6.95104L19.2232 9.07854L18.4565 9.94104C17.9903 10.4669 17.7329 11.1454 17.7329 11.8481C17.7329 12.5509 17.9903 13.2293 18.4565 13.7552ZM11.9686 8.00521C11.2104 8.00521 10.4693 8.23003 9.83889 8.65124C9.20851 9.07245 8.71718 9.67114 8.42704 10.3716C8.13691 11.072 8.06099 11.8428 8.2089 12.5864C8.35681 13.33 8.7219 14.013 9.25801 14.5491C9.79411 15.0852 10.4771 15.4503 11.2207 15.5982C11.9643 15.7461 12.7351 15.6702 13.4355 15.3801C14.136 15.0899 14.7347 14.5986 15.1559 13.9682C15.5771 13.3378 15.8019 12.5967 15.8019 11.8385C15.8019 10.8219 15.398 9.84686 14.6792 9.12797C13.9603 8.40908 12.9852 8.00521 11.9686 8.00521ZM11.9686 13.7552C11.5895 13.7552 11.2189 13.6428 10.9037 13.4322C10.5885 13.2216 10.3429 12.9222 10.1978 12.572C10.0527 12.2218 10.0148 11.8364 10.0887 11.4646C10.1627 11.0928 10.3452 10.7513 10.6133 10.4833C10.8813 10.2152 11.2229 10.0327 11.5947 9.9587C11.9665 9.88475 12.3518 9.92271 12.7021 10.0678C13.0523 10.2128 13.3516 10.4585 13.5622 10.7737C13.7728 11.0889 13.8852 11.4595 13.8852 11.8385C13.8852 12.3469 13.6833 12.8344 13.3239 13.1938C12.9644 13.5533 12.4769 13.7552 11.9686 13.7552Z" fill="#79747E"/>
</svg>
