<svg width="25" height="25" viewBox="0 0 25 25" fill="none" xmlns="http://www.w3.org/2000/svg">
<path d="M20.4615 17.2822H22.2308C22.7 17.2822 23.15 17.0958 23.4818 16.764C23.8136 16.4322 24 15.9822 24 15.5129V12.8591C24 12.3898 23.8136 11.9398 23.4818 11.608C23.15 11.2762 22.7 11.0898 22.2308 11.0898H20.4615C20.2269 11.0898 20.0019 11.183 19.836 11.3489C19.6701 11.5148 19.5769 11.7398 19.5769 11.9745V16.3975C19.5769 16.6322 19.6701 16.8572 19.836 17.0231C20.0019 17.189 20.2269 17.2822 20.4615 17.2822ZM20.4615 17.2822V18.6091C20.4615 19.5475 20.0887 20.4476 19.4251 21.1111C18.7616 21.7747 17.8615 22.1475 16.9231 22.1475M2.76923 11.0898H4.53846C4.77308 11.0898 4.99808 11.183 5.16398 11.3489C5.32988 11.5148 5.42308 11.7398 5.42308 11.9745V16.3975C5.42308 16.6322 5.32988 16.8572 5.16398 17.0231C4.99808 17.189 4.77308 17.2822 4.53846 17.2822H2.76923C2.3 17.2822 1.84999 17.0958 1.5182 16.764C1.1864 16.4322 1 15.9822 1 15.5129V12.8591C1 12.3898 1.1864 11.9398 1.5182 11.608C1.84999 11.2762 2.3 11.0898 2.76923 11.0898Z" stroke="#79747E" stroke-linecap="round" stroke-linejoin="round"/>
<path d="M4.53845 11.0901V9.32091C4.53845 7.20938 5.37725 5.18433 6.87033 3.69126C8.36341 2.19818 10.3885 1.35937 12.5 1.35938C14.6115 1.35938 16.6366 2.19818 18.1296 3.69126C19.6227 5.18433 20.4615 7.20938 20.4615 9.32091V11.0901M9.84614 7.55168V10.2055M15.1538 7.55168V10.2055M9.84614 13.744C9.84614 16.0971 15.1538 16.0971 15.1538 13.744M14.7115 19.9363C15.2981 19.9363 15.8606 20.1693 16.2753 20.584C16.6901 20.9988 16.9231 21.5613 16.9231 22.1478C16.9231 22.7344 16.6901 23.2969 16.2753 23.7116C15.8606 24.1264 15.2981 24.3594 14.7115 24.3594H12.0577C11.4711 24.3594 10.9086 24.1264 10.4939 23.7116C10.0791 23.2969 9.84614 22.7344 9.84614 22.1478C9.84614 21.5613 10.0791 20.9988 10.4939 20.584C10.9086 20.1693 11.4711 19.9363 12.0577 19.9363H14.7115Z" stroke="#79747E" stroke-linecap="round" stroke-linejoin="round"/>
</svg>
