<svg width="23" height="24" viewBox="0 0 23 24" fill="none" xmlns="http://www.w3.org/2000/svg">
<path d="M10.2679 11.9219C10.2679 12.2487 10.3977 12.5621 10.6288 12.7931C10.8598 13.0242 11.1732 13.154 11.5 13.154C11.8268 13.154 12.1402 13.0242 12.3712 12.7931C12.6023 12.5621 12.7321 12.2487 12.7321 11.9219C12.7321 11.5951 12.6023 11.2817 12.3712 11.0506C12.1402 10.8195 11.8268 10.6897 11.5 10.6897C11.1732 10.6897 10.8598 10.8195 10.6288 11.0506C10.3977 11.2817 10.2679 11.5951 10.2679 11.9219ZM15.4017 11.9219C15.4017 12.2487 15.5316 12.5621 15.7626 12.7931C15.9937 13.0242 16.3071 13.154 16.6339 13.154C16.9606 13.154 17.274 13.0242 17.5051 12.7931C17.7362 12.5621 17.866 12.2487 17.866 11.9219C17.866 11.5951 17.7362 11.2817 17.5051 11.0506C17.274 10.8195 16.9606 10.6897 16.6339 10.6897C16.3071 10.6897 15.9937 10.8195 15.7626 11.0506C15.5316 11.2817 15.4017 11.5951 15.4017 11.9219ZM5.13401 11.9219C5.13401 12.2487 5.26382 12.5621 5.49489 12.7931C5.72596 13.0242 6.03936 13.154 6.36614 13.154C6.69292 13.154 7.00631 13.0242 7.23738 12.7931C7.46845 12.5621 7.59826 12.2487 7.59826 11.9219C7.59826 11.5951 7.46845 11.2817 7.23738 11.0506C7.00631 10.8195 6.69292 10.6897 6.36614 10.6897C6.03936 10.6897 5.72596 10.8195 5.49489 11.0506C5.26382 11.2817 5.13401 11.5951 5.13401 11.9219ZM22.1066 7.46563C21.5264 6.08717 20.6948 4.84989 19.6346 3.78717C18.5819 2.73059 17.3322 1.89075 15.9562 1.31518C14.5444 0.72221 13.0453 0.421875 11.5 0.421875H11.4487C9.8931 0.429576 8.38631 0.737612 6.96937 1.34342C5.60519 1.92489 4.36717 2.76622 3.32432 3.82054C2.27445 4.88069 1.45046 6.11284 0.880603 7.48616C0.290209 8.90826 -0.00755517 10.4202 0.000145629 11.9758C0.00885587 13.7585 0.430599 15.5149 1.23227 17.1071V21.0089C1.23227 21.3221 1.35668 21.6224 1.57812 21.8439C1.79956 22.0653 2.0999 22.1897 2.41306 22.1897H6.31737C7.90962 22.9914 9.666 23.4132 11.4487 23.4219H11.5026C13.0402 23.4219 14.5315 23.1241 15.9357 22.5414C17.3047 21.9727 18.5497 21.1426 19.6012 20.0977C20.6614 19.0478 21.4956 17.8208 22.0783 16.4526C22.6841 15.0356 22.9922 13.5288 22.9999 11.9732C23.0076 10.4099 22.7047 8.89286 22.1066 7.46563ZM18.2279 18.7089C16.4285 20.4904 14.0413 21.471 11.5 21.471H11.4564C9.9085 21.4633 8.37091 21.0782 7.013 20.3544L6.79738 20.2388H3.18314V16.6246L3.06763 16.4089C2.34375 15.051 1.95871 13.5134 1.95101 11.9655C1.94075 9.40625 2.91875 7.00357 4.71303 5.19386C6.50475 3.38415 8.8997 2.38304 11.4589 2.37277H11.5026C12.786 2.37277 14.031 2.62176 15.2041 3.11462C16.3489 3.59464 17.3757 4.28516 18.2587 5.16819C19.1392 6.04866 19.8323 7.07801 20.3123 8.22288C20.8103 9.40882 21.0593 10.6666 21.0541 11.9655C21.0387 14.5222 20.0351 16.9172 18.2279 18.7089Z" fill="#79747E"/>
</svg>
