<svg width="36" height="36" viewBox="0 0 36 36" fill="none" xmlns="http://www.w3.org/2000/svg">
<circle cx="18" cy="18" r="18" fill="white"/>
<path opacity="0.5" d="M15.0771 28.7297H20.9227C25.028 28.7297 27.0813 28.7297 28.5559 27.7629C29.1921 27.3459 29.7401 26.8078 30.1685 26.1792C31.1538 24.7323 31.1538 22.7158 31.1538 18.6854C31.1538 14.6538 31.1538 12.6386 30.1685 11.1917C29.7401 10.5631 29.1921 10.025 28.5559 9.60797C27.6088 8.9858 26.4223 8.7635 24.6058 8.68457C23.7389 8.68457 22.9931 8.04003 22.8234 7.20477C22.6938 6.59294 22.3568 6.04464 21.8696 5.65255C21.3823 5.26045 20.7747 5.0486 20.1493 5.0528H15.8506C14.551 5.0528 13.4316 5.95383 13.1764 7.20477C13.0067 8.04003 12.2609 8.68457 11.3941 8.68457C9.57882 8.7635 8.39235 8.98711 7.44395 9.60797C6.80812 10.025 6.2606 10.5632 5.83261 11.1917C4.84607 12.6386 4.84607 14.6538 4.84607 18.6854C4.84607 22.7158 4.84607 24.7309 5.83129 26.1792C6.25748 26.8053 6.80468 27.3433 7.44395 27.7629C8.9185 28.7297 10.9718 28.7297 15.0771 28.7297Z" fill="#00B0FF"/>
<path d="M25.3082 13.3028C25.1656 13.3016 25.024 13.3285 24.8917 13.382C24.7595 13.4354 24.639 13.5145 24.5373 13.6145C24.4355 13.7145 24.3545 13.8336 24.2987 13.965C24.243 14.0964 24.2137 14.2374 24.2125 14.3801C24.2125 14.9746 24.7032 15.4561 25.3082 15.4561H26.7696C27.3747 15.4561 27.8667 14.9733 27.8667 14.3801C27.8655 14.2373 27.8361 14.0961 27.7803 13.9647C27.7245 13.8332 27.6434 13.7141 27.5415 13.614C27.4396 13.514 27.319 13.435 27.1865 13.3816C27.0541 13.3282 26.9124 13.3014 26.7696 13.3028H25.3082Z" fill="#00B0FF"/>
<path fill-rule="evenodd" clip-rule="evenodd" d="M17.9999 13.3027C14.9745 13.3027 12.52 15.7125 12.52 18.684C12.52 21.6567 14.9732 24.0652 18.0012 24.0652C21.0266 24.0652 23.4811 21.6567 23.4811 18.6853C23.4811 15.7125 21.0279 13.3027 18.0012 13.3027H17.9999ZM17.9999 15.456C16.1847 15.456 14.7114 16.9016 14.7114 18.684C14.7114 20.4676 16.1847 21.9132 17.9999 21.9132C19.8165 21.9132 21.2884 20.4676 21.2884 18.684C21.2884 16.9016 19.8165 15.456 17.9999 15.456Z" fill="#00B0FF"/>
</svg>
