<svg width="32" height="32" viewBox="0 0 32 32" fill="none" xmlns="http://www.w3.org/2000/svg">
<path opacity="0.2" d="M31.7892 14.7692C31.7892 17.6903 30.923 20.5458 29.3001 22.9746C27.6773 25.4034 25.3706 27.2964 22.6719 28.4142C19.9732 29.5321 17.0036 29.8245 14.1386 29.2547C11.2737 28.6848 8.64206 27.2782 6.57655 25.2126C4.51103 23.1471 3.1044 20.5155 2.53453 17.6506C1.96465 14.7856 2.25713 11.816 3.37498 9.11729C4.49283 6.41857 6.38584 4.11193 8.81462 2.48906C11.2434 0.8662 14.0989 0 17.02 0C20.937 0 24.6936 1.55604 27.4634 4.32581C30.2332 7.09557 31.7892 10.8522 31.7892 14.7692Z" fill="#43D585"/>
<path d="M18.4615 23.3846C18.4615 23.711 18.3319 24.0241 18.1011 24.2549C17.8702 24.4857 17.5572 24.6154 17.2308 24.6154C16.5779 24.6154 15.9518 24.356 15.4902 23.8944C15.0286 23.4328 14.7692 22.8067 14.7692 22.1538V16C14.4428 16 14.1298 15.8703 13.8989 15.6395C13.6681 15.4087 13.5385 15.0956 13.5385 14.7692C13.5385 14.4428 13.6681 14.1298 13.8989 13.8989C14.1298 13.6681 14.4428 13.5385 14.7692 13.5385C15.4221 13.5385 16.0482 13.7978 16.5098 14.2594C16.9714 14.7211 17.2308 15.3472 17.2308 16V22.1538C17.5572 22.1538 17.8702 22.2835 18.1011 22.5143C18.3319 22.7451 18.4615 23.0582 18.4615 23.3846ZM32 16C32 19.1645 31.0616 22.2579 29.3035 24.8891C27.5454 27.5203 25.0466 29.5711 22.1229 30.7821C19.1993 31.9931 15.9823 32.3099 12.8786 31.6926C9.77486 31.0752 6.92394 29.5513 4.6863 27.3137C2.44866 25.0761 0.924806 22.2251 0.307443 19.1214C-0.309921 16.0177 0.00693255 12.8007 1.21793 9.87706C2.42894 6.95344 4.4797 4.45459 7.11088 2.69649C9.74207 0.938383 12.8355 0 16 0C20.2421 0.00447972 24.3092 1.69163 27.3088 4.69124C30.3084 7.69085 31.9955 11.7579 32 16ZM29.5385 16C29.5385 13.3223 28.7444 10.7048 27.2568 8.47843C25.7692 6.25204 23.6548 4.51679 21.1809 3.49209C18.7071 2.4674 15.985 2.19929 13.3588 2.72168C10.7326 3.24406 8.32026 4.53347 6.42687 6.42686C4.53348 8.32025 3.24407 10.7326 2.72168 13.3588C2.1993 15.985 2.4674 18.7071 3.4921 21.1809C4.51679 23.6548 6.25205 25.7692 8.47844 27.2568C10.7048 28.7444 13.3223 29.5385 16 29.5385C19.5894 29.5344 23.0306 28.1067 25.5686 25.5686C28.1067 23.0306 29.5344 19.5894 29.5385 16ZM15.3846 11.0769C15.7498 11.0769 16.1067 10.9686 16.4103 10.7658C16.7139 10.5629 16.9505 10.2746 17.0902 9.93726C17.23 9.59992 17.2665 9.22872 17.1953 8.8706C17.1241 8.51248 16.9482 8.18353 16.69 7.92534C16.4319 7.66715 16.1029 7.49132 15.7448 7.42009C15.3867 7.34885 15.0155 7.38541 14.6781 7.52514C14.3408 7.66487 14.0525 7.9015 13.8496 8.2051C13.6467 8.5087 13.5385 8.86563 13.5385 9.23077C13.5385 9.7204 13.733 10.19 14.0792 10.5362C14.4254 10.8824 14.895 11.0769 15.3846 11.0769Z" fill="#43D585"/>
</svg>
