<svg width="24" height="24" viewBox="0 0 24 24" fill="none" xmlns="http://www.w3.org/2000/svg">
<path d="M21.0561 12.0004H19.0561C18.7908 12.0004 18.5365 12.1057 18.349 12.2933C18.1614 12.4808 18.0561 12.7352 18.0561 13.0004C18.0561 13.2656 18.1614 13.5199 18.349 13.7075C18.5365 13.895 18.7908 14.0004 19.0561 14.0004V16.0004H17.8701C17.9889 15.6802 18.0514 15.3419 18.0551 15.0004C18.055 14.34 17.8371 13.6981 17.4351 13.1742C17.0331 12.6503 16.4694 12.2736 15.8315 12.1027C15.1936 11.9318 14.5172 11.9761 13.9071 12.2288C13.297 12.4815 12.7873 12.9285 12.4571 13.5004C12.3904 13.6141 12.3468 13.74 12.329 13.8706C12.3111 14.0013 12.3193 14.1342 12.353 14.2617C12.3867 14.3892 12.4453 14.5088 12.5254 14.6136C12.6055 14.7183 12.7055 14.8062 12.8197 14.8721C12.9339 14.9381 13.0601 14.9808 13.1908 14.9978C13.3216 15.0148 13.4545 15.0057 13.5817 14.9712C13.709 14.9366 13.8282 14.8772 13.9324 14.7964C14.0367 14.7156 14.1239 14.615 14.1891 14.5004C14.2768 14.3484 14.4031 14.2221 14.5551 14.1344C14.7071 14.0466 14.8795 14.0004 15.0551 14.0004C15.3203 14.0004 15.5746 14.1057 15.7622 14.2933C15.9497 14.4808 16.0551 14.7352 16.0551 15.0004C16.0551 15.2656 15.9497 15.5199 15.7622 15.7075C15.5746 15.895 15.3203 16.0004 15.0551 16.0004C14.7898 16.0004 14.5355 16.1057 14.3479 16.2933C14.1604 16.4808 14.0551 16.7352 14.0551 17.0004C14.0551 17.2656 14.1604 17.5199 14.3479 17.7075C14.5355 17.895 14.7898 18.0004 15.0551 18.0004C15.3203 18.0004 15.5746 18.1057 15.7622 18.2933C15.9497 18.4808 16.0551 18.7352 16.0551 19.0004C16.0551 19.2656 15.9497 19.5199 15.7622 19.7075C15.5746 19.895 15.3203 20.0004 15.0551 20.0004C14.8795 20.0004 14.7071 19.9542 14.5551 19.8664C14.4031 19.7786 14.2768 19.6524 14.1891 19.5004C14.1239 19.3857 14.0367 19.2851 13.9324 19.2043C13.8282 19.1235 13.709 19.0641 13.5817 19.0296C13.4545 18.995 13.3216 18.986 13.1908 19.003C13.0601 19.02 12.9339 19.0627 12.8197 19.1286C12.7055 19.1945 12.6055 19.2824 12.5254 19.3872C12.4453 19.492 12.3867 19.6115 12.353 19.739C12.3193 19.8665 12.3111 19.9994 12.329 20.1301C12.3468 20.2608 12.3904 20.3866 12.4571 20.5004C12.7873 21.0723 13.297 21.5192 13.9071 21.7719C14.5172 22.0246 15.1936 22.0689 15.8315 21.898C16.4694 21.7271 17.0331 21.3505 17.4351 20.8266C17.8371 20.3027 18.055 19.6607 18.0551 19.0004C18.0514 18.6589 17.9889 18.3206 17.8701 18.0004H19.0551V21.0004C19.0551 21.2656 19.1604 21.5199 19.3479 21.7075C19.5355 21.895 19.7898 22.0004 20.0551 22.0004C20.3203 22.0004 20.5746 21.895 20.7622 21.7075C20.9497 21.5199 21.0551 21.2656 21.0551 21.0004V14.0004C21.3203 14.0004 21.5746 13.895 21.7622 13.7075C21.9497 13.5199 22.0551 13.2656 22.0551 13.0004C22.0551 12.7352 21.9497 12.4808 21.7622 12.2933C21.5746 12.1057 21.3213 12.0004 21.0561 12.0004ZM9.08606 11.2434C9.1172 11.3716 9.1734 11.4923 9.25142 11.5987C9.32944 11.7051 9.42774 11.795 9.54065 11.8632C9.65357 11.9314 9.77886 11.9766 9.90932 11.9962C10.0398 12.0158 10.1728 12.0094 10.3008 11.9773C10.4288 11.9453 10.5491 11.8882 10.6549 11.8094C10.7608 11.7306 10.85 11.6317 10.9174 11.5183C10.9848 11.4049 11.0291 11.2793 11.0477 11.1487C11.0664 11.0181 11.059 10.8851 11.0261 10.7574L9.26906 3.72737C9.14615 3.23356 8.86157 2.79505 8.46063 2.48167C8.05969 2.16829 7.56544 1.99805 7.05656 1.99805C6.54768 1.99805 6.05342 2.16829 5.65248 2.48167C5.25154 2.79505 4.96696 3.23356 4.84406 3.72737L3.08606 10.7574C3.05309 10.8851 3.04571 11.0181 3.06437 11.1487C3.08302 11.2793 3.12733 11.4049 3.19475 11.5183C3.26216 11.6317 3.35135 11.7306 3.45717 11.8094C3.56299 11.8882 3.68335 11.9453 3.81132 11.9773C3.93928 12.0094 4.07233 12.0158 4.20279 11.9962C4.33325 11.9766 4.45855 11.9314 4.57146 11.8632C4.68437 11.795 4.78267 11.7051 4.86069 11.5987C4.93871 11.4923 4.99491 11.3716 5.02606 11.2434L5.58506 9.00037H8.52506L9.08606 11.2434ZM6.08606 7.00037L6.78306 4.21337C6.80408 4.15798 6.84145 4.1103 6.89021 4.07665C6.93897 4.043 6.99681 4.02498 7.05606 4.02498C7.1153 4.02498 7.17314 4.043 7.2219 4.07665C7.27066 4.1103 7.30804 4.15798 7.32906 4.21337L8.02606 7.00037H6.08606ZM14.0561 7.00037H15.0561C15.3212 7.00064 15.5754 7.10608 15.7629 7.29356C15.9504 7.48104 16.0558 7.73524 16.0561 8.00037V9.00037C16.0561 9.26559 16.1614 9.51994 16.349 9.70748C16.5365 9.89501 16.7908 10.0004 17.0561 10.0004C17.3213 10.0004 17.5756 9.89501 17.7632 9.70748C17.9507 9.51994 18.0561 9.26559 18.0561 9.00037V8.00037C18.0553 7.20497 17.7389 6.44236 17.1765 5.87993C16.6141 5.31749 15.8515 5.00117 15.0561 5.00037H14.0561C13.7908 5.00037 13.5365 5.10573 13.349 5.29326C13.1614 5.4808 13.0561 5.73515 13.0561 6.00037C13.0561 6.26559 13.1614 6.51994 13.349 6.70748C13.5365 6.89501 13.7908 7.00037 14.0561 7.00037ZM10.0561 16.0004H9.05606C8.79092 16.0001 8.53672 15.8947 8.34924 15.7072C8.16176 15.5197 8.05632 15.2655 8.05606 15.0004V14.0004C8.05606 13.7352 7.9507 13.4808 7.76316 13.2933C7.57563 13.1057 7.32127 13.0004 7.05606 13.0004C6.79084 13.0004 6.53649 13.1057 6.34895 13.2933C6.16141 13.4808 6.05606 13.7352 6.05606 14.0004V15.0004C6.05685 15.7958 6.37318 16.5584 6.93561 17.1208C7.49805 17.6833 8.26065 17.9996 9.05606 18.0004H10.0561C10.3213 18.0004 10.5756 17.895 10.7632 17.7075C10.9507 17.5199 11.0561 17.2656 11.0561 17.0004C11.0561 16.7352 10.9507 16.4808 10.7632 16.2933C10.5756 16.1057 10.3213 16.0004 10.0561 16.0004Z" fill="#79747E"/>
</svg>
