<svg width="24" height="24" viewBox="0 0 24 24" fill="none" xmlns="http://www.w3.org/2000/svg">
<path d="M8.781 9.219C8.71133 9.14916 8.62857 9.09374 8.53745 9.05593C8.44633 9.01812 8.34865 8.99866 8.25 8.99866C8.15135 8.99866 8.05367 9.01812 7.96255 9.05593C7.87143 9.09374 7.78867 9.14916 7.719 9.219L6.75 10.1895L5.781 9.219C5.71127 9.14927 5.62848 9.09395 5.53737 9.05621C5.44627 9.01848 5.34862 8.99905 5.25 8.99905C5.15138 8.99905 5.05373 9.01848 4.96263 9.05621C4.87152 9.09395 4.78873 9.14927 4.719 9.219C4.64927 9.28873 4.59395 9.37152 4.55622 9.46262C4.51848 9.55373 4.49905 9.65138 4.49905 9.75C4.49905 9.84862 4.51848 9.94627 4.55622 10.0374C4.59395 10.1285 4.64927 10.2113 4.719 10.281L5.6895 11.25L4.719 12.219C4.64927 12.2887 4.59395 12.3715 4.55622 12.4626C4.51848 12.5537 4.49905 12.6514 4.49905 12.75C4.49905 12.8486 4.51848 12.9463 4.55622 13.0374C4.59395 13.1285 4.64927 13.2113 4.719 13.281C4.85983 13.4218 5.05084 13.5009 5.25 13.5009C5.34862 13.5009 5.44627 13.4815 5.53737 13.4438C5.62848 13.406 5.71127 13.3507 5.781 13.281L6.75 12.3105L7.719 13.281C7.78873 13.3507 7.87152 13.406 7.96262 13.4438C8.05373 13.4815 8.15138 13.5009 8.25 13.5009C8.34862 13.5009 8.44627 13.4815 8.53738 13.4438C8.62848 13.406 8.71127 13.3507 8.781 13.281C8.85073 13.2113 8.90605 13.1285 8.94379 13.0374C8.98152 12.9463 9.00095 12.8486 9.00095 12.75C9.00095 12.6514 8.98152 12.5537 8.94379 12.4626C8.90605 12.3715 8.85073 12.2887 8.781 12.219L7.8105 11.25L8.781 10.281C8.85084 10.2113 8.90626 10.1286 8.94407 10.0375C8.98188 9.94633 9.00134 9.84865 9.00134 9.75C9.00134 9.65135 8.98188 9.55367 8.94407 9.46255C8.90626 9.37143 8.85084 9.28867 8.781 9.219ZM13.719 9.219C13.7887 9.14927 13.8715 9.09395 13.9626 9.05621C14.0537 9.01848 14.1514 8.99905 14.25 8.99905C14.3486 8.99905 14.4463 9.01848 14.5374 9.05621C14.6285 9.09395 14.7113 9.14927 14.781 9.219C14.8507 9.28873 14.906 9.37152 14.9438 9.46262C14.9815 9.55373 15.0009 9.65138 15.0009 9.75C15.0009 9.84862 14.9815 9.94627 14.9438 10.0374C14.906 10.1285 14.8507 10.2113 14.781 10.281L13.8105 11.25L14.781 12.219C14.9218 12.3598 15.0009 12.5508 15.0009 12.75C15.0009 12.9492 14.9218 13.1402 14.781 13.281C14.6402 13.4218 14.4492 13.5009 14.25 13.5009C14.0508 13.5009 13.8598 13.4218 13.719 13.281L12.75 12.3105L11.781 13.281C11.7113 13.3507 11.6285 13.406 11.5374 13.4438C11.4463 13.4815 11.3486 13.5009 11.25 13.5009C11.1514 13.5009 11.0537 13.4815 10.9626 13.4438C10.8715 13.406 10.7887 13.3507 10.719 13.281C10.6493 13.2113 10.594 13.1285 10.5562 13.0374C10.5185 12.9463 10.4991 12.8486 10.4991 12.75C10.4991 12.6514 10.5185 12.5537 10.5562 12.4626C10.594 12.3715 10.6493 12.2887 10.719 12.219L11.6895 11.25L10.719 10.281C10.6493 10.2113 10.594 10.1285 10.5562 10.0374C10.5185 9.94627 10.4991 9.84862 10.4991 9.75C10.4991 9.65138 10.5185 9.55373 10.5562 9.46262C10.594 9.37152 10.6493 9.28873 10.719 9.219C10.7887 9.14927 10.8715 9.09395 10.9626 9.05621C11.0537 9.01848 11.1514 8.99905 11.25 8.99905C11.3486 8.99905 11.4463 9.01848 11.5374 9.05621C11.6285 9.09395 11.7113 9.14927 11.781 9.219L12.75 10.1895L13.719 9.219ZM17.25 12C17.0511 12 16.8603 12.079 16.7197 12.2197C16.579 12.3603 16.5 12.5511 16.5 12.75C16.5 12.9489 16.579 13.1397 16.7197 13.2803C16.8603 13.421 17.0511 13.5 17.25 13.5H18.75C18.9489 13.5 19.1397 13.421 19.2803 13.2803C19.421 13.1397 19.5 12.9489 19.5 12.75C19.5 12.5511 19.421 12.3603 19.2803 12.2197C19.1397 12.079 18.9489 12 18.75 12H17.25ZM5.25 4.5C4.25544 4.5 3.30161 4.89509 2.59835 5.59835C1.89509 6.30161 1.5 7.25544 1.5 8.25V14.25C1.5 14.7425 1.597 15.2301 1.78545 15.6851C1.97391 16.14 2.25013 16.5534 2.59835 16.9017C3.30161 17.6049 4.25544 18 5.25 18H18.75C19.2425 18 19.7301 17.903 20.1851 17.7145C20.64 17.5261 21.0534 17.2499 21.4016 16.9017C21.7499 16.5534 22.0261 16.14 22.2145 15.6851C22.403 15.2301 22.5 14.7425 22.5 14.25V8.25C22.5 7.25544 22.1049 6.30161 21.4016 5.59835C20.6984 4.89509 19.7446 4.5 18.75 4.5H5.25ZM3 8.25C3 7.65326 3.23705 7.08097 3.65901 6.65901C4.08097 6.23705 4.65326 6 5.25 6H18.75C19.3467 6 19.919 6.23705 20.341 6.65901C20.7629 7.08097 21 7.65326 21 8.25V14.25C21 14.8467 20.7629 15.419 20.341 15.841C19.919 16.2629 19.3467 16.5 18.75 16.5H5.25C4.65326 16.5 4.08097 16.2629 3.65901 15.841C3.23705 15.419 3 14.8467 3 14.25V8.25Z" fill="#79747E"/>
</svg>
