<svg width="20" height="20" viewBox="0 0 20 20" fill="none" xmlns="http://www.w3.org/2000/svg">
<path d="M10.0933 2C9.96776 2 9.84221 2.00343 9.71665 2.00927L9.7438 2.62661C9.85917 2.62112 9.97455 2.61803 10.0933 2.61803C14.1247 2.61803 17.3892 5.92103 17.3892 10C17.3892 14.079 14.1247 17.382 10.0933 17.382C7.05281 17.382 4.44836 15.5039 3.35228 12.8292L4.28988 12.5442L2.64645 11.3665L2 13.2378L2.76522 13.0077C3.94036 15.933 6.78134 18 10.0933 18C14.4573 18 18 14.4155 18 10C18 5.58455 14.4573 2 10.0933 2ZM9.04814 2.07004C8.59682 2.13013 8.16246 2.22798 7.73828 2.3612L7.92831 2.94798C8.31516 2.82644 8.71898 2.73682 9.12959 2.68189L9.04814 2.07004ZM7.11389 2.58918C6.69311 2.76258 6.29268 2.97099 5.91262 3.21133L6.235 3.73356C6.58452 3.51245 6.9544 3.32052 7.34125 3.1612L7.11389 2.58918ZM5.3561 3.59657C4.99986 3.86675 4.6667 4.16674 4.36013 4.49339L4.80297 4.91502C5.08462 4.61391 5.39343 4.33785 5.71919 4.08893L5.55631 3.86335L5.3561 3.59657ZM7.71453 3.89116L7.56522 4.48996L14.929 6.39485L15.0783 5.79743L7.71453 3.89116ZM3.91966 5.00429C3.64174 5.35451 3.39232 5.73219 3.17514 6.12704L3.70621 6.42918C3.90677 6.0618 4.13684 5.71502 4.39372 5.38884L3.91966 5.00429ZM8.25069 5.30644C8.11835 6.19914 8.34571 7.20172 8.73256 8.02575C8.94974 8.48584 9.21442 8.89099 9.47572 9.18627C9.61824 9.34764 9.76076 9.47124 9.88971 9.56051L9.70647 10.2884C9.55037 10.3021 9.36713 10.3433 9.16352 10.4155C8.79364 10.5459 8.36946 10.7725 7.96225 11.0712C7.22927 11.6069 6.55737 12.3725 6.25196 13.2206L11.9359 14.6936C12.0683 13.8009 11.8409 12.7983 11.4541 11.9742C11.2369 11.5142 10.9722 11.109 10.7109 10.8137C10.5684 10.6524 10.4259 10.5288 10.2969 10.4395L10.4802 9.71159C10.6329 9.69442 10.8195 9.65665 11.0231 9.58455C11.393 9.45408 11.8172 9.22747 12.2244 8.92876C12.9574 8.39313 13.6293 7.62747 13.9347 6.7794L8.25069 5.30644ZM2.87347 6.73476C2.6926 7.14678 2.54431 7.57253 2.43232 8.01545L3.02549 8.15966C3.12831 7.75451 3.26439 7.36309 3.43101 6.98541L2.87347 6.73476ZM2.29523 8.67811C2.22431 9.1073 2.18664 9.55021 2.18664 10V10.0309L2.79745 10.024V10C2.79745 9.58455 2.83207 9.17597 2.89756 8.77768L2.29523 8.67811ZM5.25769 13.6052L5.10838 14.2026L12.4721 16.1082L12.6214 15.5107L5.25769 13.6052Z" fill="#898989"/>
</svg>
