<svg width="20" height="20" viewBox="0 0 20 20" fill="none" xmlns="http://www.w3.org/2000/svg">
<path d="M6.14592 17.5208C5.64592 17.5069 5.17008 17.3786 4.71842 17.1358C4.26675 16.8931 3.8398 16.5353 3.43758 16.0625C2.88203 15.3958 2.44786 14.6008 2.13508 13.6775C1.82231 12.7542 1.66619 11.8061 1.66675 10.8333C1.66675 9.68056 1.88564 8.59722 2.32342 7.58333C2.76119 6.56944 3.35481 5.6875 4.10425 4.9375C4.85425 4.1875 5.73619 3.59389 6.75008 3.15667C7.76397 2.71944 8.8473 2.50056 10.0001 2.5C11.1529 2.5 12.2362 2.72222 13.2501 3.16667C14.264 3.61111 15.1459 4.21528 15.8959 4.97917C16.6459 5.74306 17.2398 6.63889 17.6776 7.66667C18.1154 8.69444 18.334 9.79861 18.3334 10.9792C18.3334 12.0486 18.1598 13.0486 17.8126 13.9792C17.4654 14.9097 16.9723 15.6944 16.3334 16.3333C15.9445 16.7222 15.5348 17.0175 15.1042 17.2192C14.6737 17.4208 14.2362 17.5214 13.7917 17.5208C13.5417 17.5208 13.2917 17.4897 13.0417 17.4275C12.7917 17.3653 12.5417 17.2714 12.2917 17.1458L11.1251 16.5625C10.9584 16.4792 10.7812 16.4167 10.5934 16.375C10.4056 16.3333 10.2079 16.3125 10.0001 16.3125C9.79175 16.3125 9.59369 16.3333 9.40592 16.375C9.21814 16.4167 9.04119 16.4792 8.87508 16.5625L7.70842 17.1458C7.44453 17.2847 7.18397 17.3856 6.92675 17.4483C6.66953 17.5111 6.40925 17.5353 6.14592 17.5208ZM10.0001 12.5C10.4584 12.5 10.8509 12.3369 11.1776 12.0108C11.5042 11.6847 11.6673 11.2922 11.6667 10.8333C11.6667 10.7222 11.6562 10.6111 11.6351 10.5C11.614 10.3889 11.5829 10.2778 11.5417 10.1667L12.5834 8.77083C12.7362 8.96528 12.8612 9.16306 12.9584 9.36417C13.0556 9.56528 13.139 9.77722 13.2084 10C13.2779 10.2222 13.382 10.4167 13.5209 10.5833C13.6598 10.75 13.8404 10.8333 14.0626 10.8333C14.3404 10.8333 14.5592 10.7117 14.7192 10.4683C14.8792 10.225 14.9242 9.95778 14.8542 9.66667C14.5765 8.54167 13.9862 7.62167 13.0834 6.90667C12.1806 6.19167 11.1529 5.83389 10.0001 5.83333C8.83342 5.83333 7.80203 6.19111 6.90592 6.90667C6.0098 7.62222 5.42314 8.54222 5.14592 9.66667C5.07647 9.95833 5.12175 10.2258 5.28175 10.4692C5.44175 10.7125 5.66036 10.8339 5.93758 10.8333C6.15981 10.8333 6.34036 10.75 6.47925 10.5833C6.61814 10.4167 6.7223 10.2222 6.79175 10C6.98619 9.26389 7.37869 8.66306 7.96925 8.1975C8.5598 7.73194 9.23675 7.49944 10.0001 7.5C10.2223 7.5 10.4412 7.52083 10.6567 7.5625C10.8723 7.60417 11.077 7.66667 11.2709 7.75L10.2084 9.1875C10.1806 9.1875 10.1459 9.18389 10.1042 9.17667C10.0626 9.16944 10.0279 9.16611 10.0001 9.16667C9.54175 9.16667 9.14925 9.33 8.82258 9.65667C8.49592 9.98333 8.33286 10.3756 8.33342 10.8333C8.33342 11.2917 8.49675 11.6842 8.82342 12.0108C9.15008 12.3375 9.5423 12.5006 10.0001 12.5Z" fill="#898989"/>
</svg>
