<svg width="20" height="20" viewBox="0 0 20 20" fill="none" xmlns="http://www.w3.org/2000/svg">
<path d="M2.99989 6.49993V3.49993C2.99989 3.36732 3.05257 3.24015 3.14634 3.14638C3.2401 3.05261 3.36728 2.99993 3.49989 2.99993C3.6325 2.99993 3.75967 3.05261 3.85344 3.14638C3.94721 3.24015 3.99989 3.36732 3.99989 3.49993V4.70693C5.38071 3.13848 7.32179 2.1744 9.40589 2.02193C10.2556 1.95733 11.1101 2.02958 11.9369 2.23593C13.5166 2.63062 14.9383 3.49775 16.0122 4.72159C17.0862 5.94542 17.7613 7.46772 17.9475 9.08529C18.1336 10.7029 17.822 12.3387 17.0541 13.7745C16.2862 15.2103 15.0986 16.3777 13.6499 17.1209C12.6718 17.6231 11.6003 17.9169 10.5029 17.9839C8.66764 18.1037 6.84761 17.5835 5.35289 16.5119C4.46431 15.8797 3.7148 15.0721 3.15064 14.1388C2.58649 13.2055 2.21969 12.1665 2.07289 11.0859C1.99973 10.5546 1.97996 10.0172 2.01389 9.48193C2.01809 9.4164 2.03516 9.35234 2.06412 9.29341C2.09308 9.23447 2.13336 9.18182 2.18267 9.13846C2.23198 9.09509 2.28935 9.06186 2.3515 9.04067C2.41364 9.01947 2.47936 9.01073 2.54489 9.01493C2.61042 9.01913 2.67448 9.0362 2.73341 9.06516C2.79235 9.09412 2.845 9.1344 2.88836 9.18371C2.93173 9.23302 2.96496 9.29039 2.98615 9.35254C3.00735 9.41468 3.01609 9.4804 3.01189 9.54593C3.00296 9.69709 2.99896 9.84851 2.99989 9.99993C2.99989 13.0999 5.01489 15.7299 7.80789 16.6499C8.81954 16.9828 9.89385 17.0803 10.9489 16.9349C11.7617 16.8247 12.5487 16.5721 13.2739 16.1889C14.6933 15.4356 15.8104 14.217 16.4379 12.7377C17.0653 11.2584 17.1649 9.60823 16.72 8.06414C16.2751 6.52006 15.3126 5.17597 13.9942 4.25735C12.6758 3.33873 11.0815 2.90147 9.47889 3.01893C8.82151 3.06905 8.1743 3.2104 7.55589 3.43893C6.22114 3.93779 5.0698 4.83103 4.25489 5.99993H5.99989C6.1325 5.99993 6.25968 6.05261 6.35344 6.14638C6.44721 6.24015 6.49989 6.36732 6.49989 6.49993C6.49989 6.63254 6.44721 6.75972 6.35344 6.85348C6.25968 6.94725 6.1325 6.99993 5.99989 6.99993H3.49989C3.36744 6.9994 3.24057 6.94656 3.14692 6.8529C3.05326 6.75925 3.00042 6.63238 2.99989 6.49993ZM7.49989 7.96693C7.49989 7.03693 8.47989 6.43193 9.31189 6.84993L13.3519 8.88293C14.2689 9.34493 14.2689 10.6549 13.3519 11.1169L9.31189 13.1489C9.12143 13.2448 8.90962 13.2903 8.69659 13.2813C8.48356 13.2722 8.2764 13.2087 8.0948 13.097C7.9132 12.9852 7.76321 12.8289 7.65908 12.6428C7.55495 12.4568 7.50015 12.2472 7.49989 12.0339V7.96693ZM8.86189 7.74393C8.82381 7.72485 8.78149 7.71581 8.73894 7.71768C8.6964 7.71954 8.65503 7.73225 8.61877 7.75458C8.5825 7.77692 8.55255 7.80815 8.53175 7.84532C8.51094 7.88248 8.49998 7.92434 8.49989 7.96693V12.0329C8.49998 12.0755 8.51094 12.1174 8.53175 12.1545C8.55255 12.1917 8.5825 12.2229 8.61877 12.2453C8.65503 12.2676 8.6964 12.2803 8.73894 12.2822C8.78149 12.284 8.82381 12.275 8.86189 12.2559L12.9019 10.2229C12.9431 10.202 12.9777 10.1702 13.0019 10.1308C13.0261 10.0914 13.0389 10.0461 13.0389 9.99993C13.0389 9.95373 13.0261 9.90844 13.0019 9.86907C12.9777 9.82971 12.9431 9.79781 12.9019 9.77693L8.86189 7.74393Z" fill="#898989"/>
</svg>
