<svg width="33" height="33" viewBox="0 0 33 33" fill="none" xmlns="http://www.w3.org/2000/svg">
<path opacity="0.2" d="M28.7746 27.8437H5.34897C3.65888 27.8437 2.59822 26.1409 3.41916 24.7616L15.132 5.18457C15.9757 3.7666 18.1479 3.7666 18.9916 5.18457L30.7044 24.7616C31.5253 26.1409 30.4647 27.8437 28.7746 27.8437Z" fill="#FFDE82"/>
<path d="M31.6324 24.2461L19.921 4.66907C19.6283 4.18944 19.2105 3.79176 18.709 3.51544C18.2075 3.23911 17.6396 3.09375 17.0618 3.09375C16.4839 3.09375 15.916 3.23911 15.4145 3.51544C14.913 3.79176 14.4952 4.18944 14.2025 4.66907L2.49108 24.2461C2.20949 24.71 2.0611 25.2376 2.0611 25.7749C2.0611 26.3122 2.20949 26.8398 2.49108 27.3037C2.77999 27.7862 3.19708 28.1861 3.69954 28.4622C4.202 28.7384 4.77175 28.8809 5.35031 28.8751H28.7732C29.3513 28.8804 29.9205 28.7377 30.4225 28.4616C30.9244 28.1855 31.3411 27.7859 31.6298 27.3037C31.9118 26.84 32.0606 26.3125 32.0611 25.7752C32.0616 25.238 31.9136 24.7102 31.6324 24.2461ZM29.775 26.2712C29.6729 26.4388 29.5263 26.5773 29.3502 26.6724C29.1742 26.7676 28.9751 26.8159 28.7732 26.8126H5.35031C5.14846 26.8159 4.94931 26.7676 4.77328 26.6724C4.59725 26.5773 4.45067 26.4388 4.34858 26.2712C4.2561 26.1205 4.20731 25.9486 4.20731 25.7736C4.20731 25.5986 4.2561 25.4267 4.34858 25.276L16.06 5.69903C16.1642 5.53219 16.3114 5.39413 16.4874 5.29829C16.6634 5.20244 16.8622 5.15207 17.0644 5.15207C17.2667 5.15207 17.4654 5.20244 17.6414 5.29829C17.8175 5.39413 17.9647 5.53219 18.0689 5.69903L29.7803 25.276C29.872 25.4272 29.9198 25.5993 29.9189 25.7743C29.918 25.9493 29.8682 26.1209 29.775 26.2712ZM15.9904 18.5626V13.4063C15.9904 13.1328 16.1033 12.8705 16.3042 12.6771C16.5051 12.4837 16.7776 12.3751 17.0618 12.3751C17.3459 12.3751 17.6184 12.4837 17.8193 12.6771C18.0203 12.8705 18.1331 13.1328 18.1331 13.4063V18.5626C18.1331 18.8361 18.0203 19.0984 17.8193 19.2918C17.6184 19.4852 17.3459 19.5938 17.0618 19.5938C16.7776 19.5938 16.5051 19.4852 16.3042 19.2918C16.1033 19.0984 15.9904 18.8361 15.9904 18.5626ZM18.6688 23.2032C18.6688 23.5092 18.5746 23.8082 18.398 24.0626C18.2214 24.317 17.9704 24.5153 17.6768 24.6323C17.3831 24.7494 17.06 24.78 16.7482 24.7204C16.4365 24.6607 16.1502 24.5133 15.9254 24.297C15.7006 24.0807 15.5476 23.8051 15.4856 23.505C15.4236 23.2049 15.4554 22.8939 15.577 22.6112C15.6987 22.3286 15.9047 22.087 16.1689 21.917C16.4332 21.7471 16.7439 21.6563 17.0618 21.6563C17.488 21.6563 17.8967 21.8193 18.1981 22.1094C18.4995 22.3995 18.6688 22.793 18.6688 23.2032Z" fill="#FFDE82"/>
</svg>
